<?xml version="1.0" encoding="utf-8"?>
<!-- Generator: Adobe Illustrator 24.3.0, SVG Export Plug-In . SVG Version: 6.00 Build 0)  -->
<svg version="1.1" id="Layer_1" xmlns="http://www.w3.org/2000/svg" xmlns:xlink="http://www.w3.org/1999/xlink" x="0px" y="0px"
	 viewBox="0 0 1920 1080" style="enable-background:new 0 0 1920 1080;" xml:space="preserve">
<style type="text/css">
	.st0{fill:url(#SVGID_1_);}
</style>
<linearGradient id="SVGID_1_" gradientUnits="userSpaceOnUse" x1="1359.1478" y1="300.5113" x2="152.8262" y2="1024.3043">
	<stop  offset="0" style="stop-color:#FF5555"/>
	<stop  offset="1" style="stop-color:#FF2A2A"/>
</linearGradient>
<path class="st0" d="M1437.5,259.5C1147.5,259.5,960,0,960,0H0v985.31c16.23-3.47,33.06-5.31,50.31-5.31
	c44.14,0,85.51,11.95,121.15,32.82C207.1,991.95,248.48,980,292.62,980c48.23,0,93.17,14.27,130.92,38.85
	c33.35-17.51,71.22-27.41,111.39-27.41c32,0,62.55,6.29,90.52,17.7c30.93-14.5,65.38-22.61,101.71-22.61
	c36.35,0,70.82,8.12,101.77,22.64c30.95-14.52,65.42-22.64,101.77-22.64c77.19,0,145.95,36.54,190.32,93.46H1920V398.49
	C1920,398.49,1727.5,259.5,1437.5,259.5z"/>
</svg>
